# Blender 5.0.1
# www.blender.org
mtllib basic head mesh.mtl
o Plane.011
v 3.410933 1.522504 -0.155622
v -0.218001 2.695690 -0.758487
v 0.247223 3.483968 -0.758487
v 0.175841 3.766565 -0.570307
v 0.557113 4.750206 -0.435629
v 0.121189 2.393015 -0.781992
v 0.413335 3.346081 -0.600233
v 0.277148 2.572067 -0.574264
v 0.937613 3.271616 0.278737
v 0.628424 3.656253 0.061035
v 0.736616 2.688156 0.128651
v 0.027727 2.230242 -0.729741
v 0.128109 2.043643 -0.721460
v 0.048947 1.898039 -0.749324
v 0.387039 1.939702 -0.429114
v 0.573724 2.028351 -0.134094
v 0.204692 1.719965 -0.766204
v 0.169567 1.306466 -0.761865
v 0.416178 1.282576 -0.563987
v 0.944152 4.451414 0.185634
v 1.914599 5.233765 -0.249640
v 2.049799 4.858455 0.319859
v 2.027070 3.258178 0.415045
v 0.746752 1.316809 -0.403813
v 1.236534 1.688962 -0.068390
v 1.493465 2.170730 0.215768
v 0.343709 1.196862 -0.801012
v 0.640697 1.183619 -0.750920
v 3.323969 4.584980 -0.547546
v 3.317317 4.288445 -0.237741
v 3.432387 3.300843 -0.237741
v 3.029537 2.570732 -0.237741
v 2.462729 2.460931 -0.152050
v 1.895343 2.059424 -0.009776
v 1.751613 1.740297 -0.108318
v 1.434006 1.399318 -0.446028
v 1.301622 1.315027 -0.642093
v 2.845206 1.406060 -0.065778
v 2.273589 1.009579 0.076256
v 2.107348 0.561807 -0.035562
v 1.753250 0.235732 -0.409877
v 1.636727 0.052174 -0.615081
v 3.410933 1.522504 -1.715856
v -0.218001 2.695690 -1.112990
v 0.247223 3.483968 -1.112990
v 0.175841 3.766565 -1.301170
v 0.557113 4.750206 -1.435848
v 0.121189 2.393015 -1.089486
v 0.413335 3.346081 -1.271244
v 0.277148 2.572067 -1.297213
v 0.937613 3.271616 -2.150214
v 0.628424 3.656253 -1.932513
v 0.736616 2.688156 -2.000128
v 0.027727 2.230242 -1.141737
v 0.128109 2.043643 -1.150017
v 0.048947 1.898039 -1.122154
v 0.387039 1.939702 -1.442364
v 0.573724 2.028351 -1.737383
v 0.204692 1.719965 -1.105273
v 0.169567 1.306466 -1.109612
v 0.416178 1.282576 -1.307490
v 0.944152 4.451414 -2.057112
v 1.914599 5.233765 -1.621838
v 2.049799 4.858455 -2.191337
v 2.027070 3.258178 -2.286522
v 0.746752 1.316809 -1.467664
v 1.236534 1.688962 -1.803087
v 1.493465 2.170730 -2.087246
v 0.343709 1.196862 -1.070465
v 0.640697 1.183619 -1.120558
v 3.323969 4.584980 -1.323932
v 3.317317 4.288445 -1.633736
v 3.432387 3.300843 -1.633736
v 3.029537 2.570732 -1.633736
v 2.462729 2.460931 -1.719428
v 1.895343 2.059424 -1.861701
v 1.751613 1.740297 -1.763159
v 1.434006 1.399318 -1.425449
v 1.301622 1.315027 -1.229384
v 2.845206 1.406060 -1.805700
v 2.273589 1.009579 -1.947733
v 2.107348 0.561807 -1.835915
v 1.753250 0.235732 -1.461601
v 1.636727 0.052174 -1.256397
v 0.175841 3.766565 -0.935739
v 3.672687 3.333187 -0.935739
v 0.557113 4.796582 -0.935739
v 1.914599 5.297884 -0.935739
v 3.383203 4.654444 -0.935739
v 3.325791 2.394128 -0.935739
v 1.630507 0.052174 -0.935739
v 3.742534 1.339257 -0.935739
v 1.301622 1.310813 -0.935739
v 0.634682 1.169412 -0.935739
v 0.169567 1.306466 -0.935739
v 0.204692 1.719965 -0.935739
v 0.048947 1.898039 -0.935739
v 0.128109 2.043643 -0.935739
v 0.041042 2.175698 -0.935739
v 0.156842 2.381633 -0.935739
v -0.082299 2.453587 -0.935739
v -0.218001 2.695690 -0.935739
v 0.247223 3.483968 -0.935739
v 0.343709 1.196862 -0.935739
vn -0.8612 0.5083 -0.0000
vn -0.9695 -0.2449 -0.0000
vn -0.9354 0.3530 0.0189
vn -0.8723 -0.4889 -0.0000
vn -0.2881 -0.9576 0.0041
vn -0.4733 -0.5818 0.6614
vn -0.3998 0.1689 0.9009
vn -0.7827 -0.4304 0.4496
vn -0.8400 0.1613 0.5181
vn -0.8638 0.4616 -0.2022
vn -0.8617 -0.5059 0.0384
vn -0.8786 0.4776 -0.0000
vn -0.7550 -0.3825 0.5327
vn -0.6830 0.2393 0.6901
vn -0.6744 0.1647 0.7197
vn -0.8379 -0.0153 0.5457
vn -0.7527 -0.6583 -0.0000
vn -0.5442 -0.5371 0.6445
vn -0.9964 0.0846 -0.0000
vn -0.6211 0.0610 0.7814
vn -0.8203 -0.1497 0.5519
vn -0.7763 0.2180 0.5915
vn -0.3450 0.9346 0.0871
vn -0.3436 0.7446 0.5722
vn -0.1822 0.0692 0.9808
vn -0.3188 -0.4028 0.8580
vn -0.2922 -0.3237 0.8999
vn -0.1573 -0.1354 0.9782
vn -0.5327 -0.8463 -0.0000
vn -0.4144 -0.8080 0.4189
vn -0.0728 -0.9963 0.0457
vn -0.0947 -0.9224 0.3746
vn 0.4174 0.8987 0.1348
vn 0.4860 0.7273 0.4846
vn 0.4202 0.0479 0.9062
vn 0.4196 0.0489 0.9064
vn 0.3539 -0.3189 0.8793
vn 0.4214 -0.3437 0.8392
vn 0.2094 -0.5049 0.8374
vn 0.1279 -0.7535 0.6448
vn 0.1984 -0.9795 0.0352
vn 0.1333 -0.9389 0.3174
vn 0.9532 0.1667 0.2522
vn 0.8490 -0.3814 0.3657
vn 0.8900 0.3492 0.2930
vn -0.7713 -0.1922 0.6067
vn -0.9670 -0.2545 0.0115
vn -0.6446 -0.1509 0.7495
vn -0.4249 -0.0757 0.9021
vn 0.1503 0.1345 0.9795
vn 0.1275 0.1251 0.9839
vn -0.9354 0.3530 -0.0189
vn -0.2881 -0.9576 -0.0041
vn -0.4733 -0.5818 -0.6614
vn -0.3998 0.1689 -0.9009
vn -0.7827 -0.4304 -0.4496
vn -0.8400 0.1613 -0.5181
vn -0.8638 0.4616 0.2022
vn -0.8617 -0.5059 -0.0384
vn -0.7550 -0.3825 -0.5327
vn -0.6830 0.2393 -0.6901
vn -0.6744 0.1647 -0.7197
vn -0.8379 -0.0153 -0.5457
vn -0.5442 -0.5371 -0.6445
vn -0.6211 0.0610 -0.7814
vn -0.8203 -0.1497 -0.5519
vn -0.7763 0.2180 -0.5915
vn -0.3450 0.9346 -0.0871
vn -0.3436 0.7446 -0.5722
vn -0.1822 0.0692 -0.9808
vn -0.3188 -0.4028 -0.8580
vn -0.2922 -0.3237 -0.8999
vn -0.1573 -0.1354 -0.9782
vn -0.4144 -0.8080 -0.4189
vn -0.0728 -0.9963 -0.0457
vn -0.0947 -0.9224 -0.3746
vn 0.4174 0.8987 -0.1348
vn 0.4860 0.7273 -0.4846
vn 0.4202 0.0479 -0.9062
vn 0.4196 0.0489 -0.9064
vn 0.3539 -0.3189 -0.8793
vn 0.4214 -0.3437 -0.8392
vn 0.2094 -0.5049 -0.8374
vn 0.1279 -0.7535 -0.6448
vn 0.1984 -0.9795 -0.0352
vn 0.1333 -0.9389 -0.3174
vn 0.9532 0.1667 -0.2522
vn 0.8490 -0.3814 -0.3657
vn 0.8900 0.3492 -0.2930
vn -0.7713 -0.1922 -0.6067
vn -0.9670 -0.2545 -0.0115
vn -0.6446 -0.1509 -0.7495
vn -0.4249 -0.0757 -0.9021
vn 0.1503 0.1345 -0.9795
vn 0.1275 0.1251 -0.9839
s 0
f 102//1 2//1 3//1 103//1
f 4//2 85//2 103//2 3//2
f 5//3 87//3 85//3 4//3
f 102//4 101//4 2//4
f 100//5 6//5 101//5
f 2//6 101//6 6//6 8//6
f 8//7 7//7 3//7 2//7
f 4//8 3//8 7//8 9//8 10//8
f 8//9 11//9 9//9 7//9
f 99//10 12//10 6//10 100//10
f 98//11 13//11 12//11 99//11
f 97//12 14//12 13//12 98//12
f 13//13 15//13 12//13
f 14//14 15//14 13//14
f 8//15 6//15 12//15 15//15
f 11//16 8//16 15//16 16//16
f 96//17 17//17 14//17 97//17
f 15//18 14//18 17//18
f 95//19 18//19 17//19 96//19
f 18//20 19//20 17//20
f 16//21 15//21 17//21 19//21
f 5//22 4//22 10//22 20//22
f 21//23 88//23 87//23 5//23
f 20//24 22//24 21//24 5//24
f 9//25 23//25 22//25 20//25 10//25
f 25//26 16//26 19//26 24//26
f 26//27 11//27 16//27 25//27
f 11//28 26//28 23//28 9//28
f 18//29 95//29 104//29 27//29
f 19//30 18//30 27//30
f 94//31 28//31 27//31 104//31
f 24//32 19//32 27//32 28//32
f 29//33 89//33 88//33 21//33
f 22//34 30//34 29//34 21//34
f 23//35 30//35 22//35
f 30//36 23//36 31//36
f 23//37 33//37 32//37 31//37
f 26//38 34//38 33//38 23//38
f 35//39 34//39 26//39 25//39
f 36//40 35//40 25//40 24//40
f 93//41 37//41 28//41 94//41
f 28//42 37//42 36//42 24//42
f 86//43 89//43 29//43 30//43 31//43
f 90//44 86//44 31//44 32//44
f 90//45 32//45 1//45 92//45
f 36//46 37//46 42//46 41//46
f 37//47 93//47 91//47 42//47
f 35//48 36//48 41//48 40//48
f 34//49 35//49 40//49 39//49
f 33//50 34//50 39//50 38//50
f 32//51 33//51 38//51 1//51
f 102//1 103//1 45//1 44//1
f 46//2 45//2 103//2 85//2
f 47//52 46//52 85//52 87//52
f 102//4 44//4 101//4
f 100//53 101//53 48//53
f 44//54 50//54 48//54 101//54
f 50//55 44//55 45//55 49//55
f 46//56 52//56 51//56 49//56 45//56
f 50//57 49//57 51//57 53//57
f 99//58 100//58 48//58 54//58
f 98//59 99//59 54//59 55//59
f 97//12 98//12 55//12 56//12
f 55//60 54//60 57//60
f 56//61 55//61 57//61
f 50//62 57//62 54//62 48//62
f 53//63 58//63 57//63 50//63
f 96//17 97//17 56//17 59//17
f 57//64 59//64 56//64
f 95//19 96//19 59//19 60//19
f 60//65 59//65 61//65
f 58//66 61//66 59//66 57//66
f 47//67 62//67 52//67 46//67
f 63//68 47//68 87//68 88//68
f 62//69 47//69 63//69 64//69
f 51//70 52//70 62//70 64//70 65//70
f 67//71 66//71 61//71 58//71
f 68//72 67//72 58//72 53//72
f 53//73 51//73 65//73 68//73
f 60//29 69//29 104//29 95//29
f 61//74 69//74 60//74
f 94//75 104//75 69//75 70//75
f 66//76 70//76 69//76 61//76
f 71//77 63//77 88//77 89//77
f 64//78 63//78 71//78 72//78
f 65//79 64//79 72//79
f 72//80 73//80 65//80
f 65//81 73//81 74//81 75//81
f 68//82 65//82 75//82 76//82
f 77//83 67//83 68//83 76//83
f 78//84 66//84 67//84 77//84
f 93//85 94//85 70//85 79//85
f 70//86 66//86 78//86 79//86
f 86//87 73//87 72//87 71//87 89//87
f 90//88 74//88 73//88 86//88
f 90//89 92//89 43//89 74//89
f 78//90 83//90 84//90 79//90
f 79//91 84//91 91//91 93//91
f 77//92 82//92 83//92 78//92
f 76//93 81//93 82//93 77//93
f 75//94 80//94 81//94 76//94
f 74//95 43//95 80//95 75//95
